<svg id="Calque_1" data-name="Calque 1" xmlns="http://www.w3.org/2000/svg" viewBox="0 0 747.1 99.36"><defs><style>.cls-1{fill:#fff;}</style></defs><title>FreeFem Documentation Logo Blanc</title><path class="cls-1" d="M146.28,53.93H132.67V66.45h-9.61V33.32H147.4v7.39H132.67v5.83h13.61Z" transform="translate(0 0)"/><path class="cls-1" d="M163.77,55.45H160v11h-9.65V33.32H165q6.45,0,10.09,2.6a8.43,8.43,0,0,1,3.64,7.27,11.14,11.14,0,0,1-1.39,5.9,10.43,10.43,0,0,1-4.67,3.84l7.2,13.14v.38H169.54ZM160,48h5c2.76,0,4.15-1.25,4.15-3.75s-1.48-3.61-4.45-3.61h-4.75Z" transform="translate(0 0)"/><path class="cls-1" d="M206.24,53h-13v6h15.44v7.43h-25V33.32h25.19v7.39H193.23v4.92h13Z" transform="translate(0 0)"/><path class="cls-1" d="M234.13,53h-13v6h15.44v7.43H211.48V33.32h25.21v7.39H221.11v4.92h13Z" transform="translate(0 0)"/><path class="cls-1" d="M262.61,53.93H249V66.45h-9.61V33.32h24.33v7.39H249v5.83h13.61Z" transform="translate(0 0)"/><path class="cls-1" d="M289.34,53h-13v6h15.43v7.43h-25V33.32H292v7.39H276.34v4.92h13Z" transform="translate(0 0)"/><path class="cls-1" d="M307.34,33.32l6.87,21.13,6.91-21.14h12.76V66.45h-9.66V61.34l1-17.7-7.88,22.81h-6.2l-7.87-22.81,1,17.69v5.12h-9.65V33.32Z" transform="translate(0 0)"/><path class="cls-1" d="M357.4,65.6v-32h9.73a15.73,15.73,0,0,1,7.58,1.81,13,13,0,0,1,5.23,5.13A15.12,15.12,0,0,1,381.88,48v3a15.35,15.35,0,0,1-1.83,7.57,12.93,12.93,0,0,1-5.19,5.15,16.18,16.18,0,0,1-7.68,1.9Zm3.27-29.15V62.82h6.26a11.44,11.44,0,0,0,8.51-3.21c2.11-2.14,3.16-5.07,3.17-8.78V48.22a11.76,11.76,0,0,0-3.1-8.56A11.23,11.23,0,0,0,367,36.45Z" transform="translate(0 0)"/><path class="cls-1" d="M414.68,51.2c0,4.51-1.22,8.1-3.65,10.8a13.92,13.92,0,0,1-19.63,0q-3.69-4.06-3.7-10.91v-3a17.52,17.52,0,0,1,1.65-7.8,12.25,12.25,0,0,1,4.74-5.24,13.59,13.59,0,0,1,7.07-1.85,12.71,12.71,0,0,1,9.66,3.89q3.69,3.88,3.86,10.45ZM411.44,48c0-3.74-.92-6.66-2.76-8.78A10.42,10.42,0,0,0,394,38.91l-.27.27q-2.76,3.18-2.76,8.94v3.05q0,5.58,2.77,8.79a10.38,10.38,0,0,0,14.68.32c.11-.1.21-.21.32-.32q2.71-3.18,2.72-8.93Z" transform="translate(0 0)"/><path class="cls-1" d="M446.41,55.51a11.27,11.27,0,0,1-3.91,7.81A13.62,13.62,0,0,1,433.64,66a12.22,12.22,0,0,1-9.44-3.93q-3.61-3.93-3.61-10.83V47.77a17.13,17.13,0,0,1,1.63-7.68A12.05,12.05,0,0,1,426.85,35a13.25,13.25,0,0,1,6.95-1.8c3.67,0,6.6.92,8.77,2.76a11.53,11.53,0,0,1,3.84,7.85h-3.29A9,9,0,0,0,440.4,38q-2.23-2-6.6-2a9,9,0,0,0-7.28,3.13c-1.77,2.08-2.65,5-2.66,8.72v3.58q0,5.46,2.62,8.61a8.83,8.83,0,0,0,7.16,3.16q4.42,0,6.69-1.92a8.84,8.84,0,0,0,2.79-5.83Z" transform="translate(0 0)"/><path class="cls-1" d="M477.15,33.59V55.18a10,10,0,0,1-3.29,7.93Q470.56,66,465,66t-8.85-2.85a10,10,0,0,1-3.35-7.79V33.59H456V55.18a7.56,7.56,0,0,0,2.4,5.94,11.12,11.12,0,0,0,13.07,0,7.54,7.54,0,0,0,2.42-5.89V33.59Z" transform="translate(0 0)"/><path class="cls-1" d="M489.41,33.59,501.77,61l12.36-27.45h4.37v32h-3.27V52.45l.3-14.92L503,65.53h-2.48L488.06,37.7l.28,14.75V65.56h-3.27v-32Z" transform="translate(0 0)"/><path class="cls-1" d="M546.11,50.45H530.26V62.87h18.27v2.78H527v-32h21.43v2.8H530.26V47.6h15.85Z" transform="translate(0 0)"/><path class="cls-1" d="M580.34,65.6h-3.27L557.73,38.75V65.6h-3.27v-32h3.27L577,60.45V33.59h3.32Z" transform="translate(0 0)"/><path class="cls-1" d="M612.34,36.45h-11.7V65.6h-3.3V36.45H585.7V33.59h26.64Z" transform="translate(0 0)"/><path class="cls-1" d="M636.52,57.05H621l-3.4,8.55h-3.41l13-32h3.15l12.91,32h-3.38Zm-14.42-2.8h13.3l-6.62-16.73Z" transform="translate(0 0)"/><path class="cls-1" d="M670,36.45h-11.7V65.6h-3.27V36.45H643.39V33.59H670Z" transform="translate(0 0)"/><path class="cls-1" d="M679.41,65.6h-3.3v-32h3.3Z" transform="translate(0 0)"/><path class="cls-1" d="M714.13,51.2c0,4.51-1.21,8.1-3.65,10.8a13.92,13.92,0,0,1-19.63,0q-3.69-4.06-3.69-10.91v-3a17.78,17.78,0,0,1,1.64-7.8,12.25,12.25,0,0,1,4.74-5.24,13.63,13.63,0,0,1,7.08-1.85,12.72,12.72,0,0,1,9.65,3.89Q714,41,714.13,47.54ZM710.89,48c0-3.74-.92-6.66-2.76-8.78a10.42,10.42,0,0,0-14.73-.27l-.27.27q-2.76,3.18-2.76,8.94v3.05q0,5.58,2.77,8.79a10.38,10.38,0,0,0,14.68.32l.32-.32c1.82-2.12,2.72-5.1,2.72-8.93Z" transform="translate(0 0)"/><path class="cls-1" d="M747.1,65.6h-3.27L724.55,38.75V65.6h-3.27v-32h3.27l19.28,26.85V33.59h3.27Z" transform="translate(0 0)"/><polygon class="cls-1" points="33.1 66.26 33.1 41.39 0 41.39 0 66.26 0 70.38 0 99.36 99.36 99.36 99.36 66.26 33.1 66.26"/><rect id="SVGID" class="cls-1" x="41.39" y="41.39" width="16.58" height="16.58"/><polygon class="cls-1" points="0 0 0 33.16 66.2 33.16 66.2 57.97 99.36 57.97 99.36 33.16 99.36 28.98 99.36 0 0 0"/></svg>