<svg id="Calque_1" data-name="Calque 1" xmlns="http://www.w3.org/2000/svg" viewBox="0 0 380.98 113.39"><defs><style>.cls-1{fill:blue;}.cls-2{fill:#00007f;}</style></defs><title>Logo</title><polygon class="cls-1" points="37.77 75.61 37.77 47.23 0 47.23 0 75.61 0 80.31 0 113.39 113.39 113.39 113.39 75.61 37.77 75.61"/><rect id="SVGID" class="cls-1" x="47.23" y="47.23" width="18.92" height="18.92"/><polygon class="cls-1" points="0 0 0 37.84 75.55 37.84 75.55 66.15 113.39 66.15 113.39 37.84 113.39 33.08 113.39 0 0 0"/><path class="cls-2" d="M397.36,291H381.81v14.22h-11V267.42h27.75v8.44H381.74v6.67H397.3V291Z" transform="translate(-230.46 -229.51)"/><path class="cls-2" d="M417.29,292.68H413v12.51H402V267.42h16.7c4.89,0,8.76,1,11.49,3a9.55,9.55,0,0,1,4.13,8.32,12.59,12.59,0,0,1-1.59,6.73,11.85,11.85,0,0,1-5.33,4.38l8.19,15v.44H423.77ZM413,284.24h5.71c3.18,0,4.76-1.4,4.76-4.25s-1.71-4.13-5.08-4.13H413Z" transform="translate(-230.46 -229.51)"/><path class="cls-2" d="M465.8,289.89H450.94v6.86h17.59v8.44H440V267.42h28.76v8.44H450.94v5.59H465.8Z" transform="translate(-230.46 -229.51)"/><path class="cls-2" d="M497.6,289.89H482.75v6.86h17.58v8.44H471.77V267.42h28.75v8.44H482.75v5.59H497.6Z" transform="translate(-230.46 -229.51)"/><path class="cls-2" d="M530.11,291H514.55v14.22h-11V267.42h27.75v8.44H514.49v6.67h15.56V291Z" transform="translate(-230.46 -229.51)"/><path class="cls-2" d="M560.58,289.89H545.73v6.86h17.58v8.44H534.74V267.42H563.5v8.44H545.73v5.59h14.85Z" transform="translate(-230.46 -229.51)"/><path class="cls-2" d="M581.09,267.42,589,291.54l7.87-24.12h14.6v37.77h-11v-5.84l1.08-20.19-9,26h-7l-9-26,1.14,20.19v5.84h-11V267.42Z" transform="translate(-230.46 -229.51)"/></svg>